/vscmnt/brussel_pixiu_data/_data_brussel/112/vsc11236/PredSimResults/SUBJ10mtu3D/worker5.mot
version=1
nRows=4
nColumns=50
inDegrees=yes
endheader
                time	         pelvis_tilt	         pelvis_list	     pelvis_rotation	           pelvis_tx	           pelvis_ty	           pelvis_tz	       hip_flexion_r	     hip_adduction_r	      hip_rotation_r	        knee_angle_r	       ankle_angle_r	         mtp_angle_r	       hip_flexion_l	     hip_adduction_l	      hip_rotation_l	        knee_angle_l	       ankle_angle_l	         mtp_angle_l	    lumbar_extension	      lumbar_bending	     lumbar_rotation	 ercspn_r/activation	 intobl_r/activation	 extobl_r/activation	    abd_r/activation	    add_r/activation	hamstrings_r/activation	bifemsh_r/activation	glut_max_r/activation	iliopsoas_r/activation	rect_fem_r/activation	  vasti_r/activation	gastroc_r/activation	 soleus_r/activation	tib_ant_r/activation	 ercspn_l/activation	 intobl_l/activation	 extobl_l/activation	    abd_l/activation	    add_l/activation	hamstrings_l/activation	bifemsh_l/activation	glut_max_l/activation	iliopsoas_l/activation	rect_fem_l/activation	  vasti_l/activation	gastroc_l/activation	 soleus_l/activation	tib_ant_l/activation	
          0.00000000	         -5.00935567	          0.05363211	          6.81320517	          0.00000000	          0.82167553	         -0.01236441	         31.78774297	         -2.39581935	         -4.87225947	         -7.98814772	          1.90270834	          0.27065113	        -16.21210961	          0.47007482	          1.64573860	         -5.33627038	          6.34245452	         28.10765916	         -7.60703895	         -1.28102440	         -5.26889733	          0.11157672	          0.15362052	          0.01000013	          0.01000002	          0.15308783	          0.09823652	          0.27142225	          0.05995148	          0.05648862	          0.01000022	          0.01000001	          0.02134571	          0.01400190	          0.35025826	          0.11352046	          0.01000002	          0.01000004	          0.05821066	          0.01000054	          0.01450180	          0.22299872	          0.01185098	          0.32866349	          0.01000042	          0.01000005	          0.28984472	          0.20750293	          0.02120194	
          0.01099781	         -5.01882632	          0.06974983	          6.95293659	          0.01572339	          0.82055077	         -0.01217074	         31.48272880	         -2.27479730	         -4.48601410	         -9.40470334	          1.58859537	          0.25680212	        -16.27988613	          0.35649779	          1.38749232	         -7.10748891	          5.58605840	         29.74195193	         -7.41037589	         -0.85967909	         -5.58057143	          0.09429315	          0.12982420	          0.01000007	          0.02333578	          0.12937404	          0.08674955	          0.22937817	          0.10019254	          0.04773834	          0.01000004	          0.01000000	          0.01803920	          0.01183297	          0.40990528	          0.12885248	          0.01000001	          0.01000009	          0.04919363	          0.01000289	          0.01280701	          0.18845549	          0.01001526	          0.27775246	          0.01000012	          0.01000003	          0.24494698	          0.19321746	          0.01791769	
          0.02199561	         -5.02292550	          0.07355414	          7.04953967	          0.03157278	          0.81971320	         -0.01185773	         31.09136768	         -2.15280489	         -4.17441045	        -10.64271377	          1.14960967	          0.24537959	        -16.16536401	          0.22774926	          1.09670169	         -9.20458129	          4.72386045	         31.25876571	         -7.21159127	         -0.42694094	         -5.86597291	          0.11624642	          0.10971399	          0.01000009	          0.08003358	          0.14466764	          0.07331181	          0.19384676	          0.12148007	          0.04034351	          0.01000008	          0.01000003	          0.01524487	          0.01000004	          0.45274607	          0.14728302	          0.01000001	          0.01000008	          0.04157337	          0.01000008	          0.01083060	          0.15926311	          0.01000003	          0.23472771	          0.01000031	          0.01000003	          0.20700386	          0.17430586	          0.01514218	
          0.03299342	         -5.02155484	          0.07728980	          7.10533860	          0.04738430	          0.81927125	         -0.01143776	         30.70813947	         -2.02744526	         -3.95223425	        -11.90128285	          0.78686339	          0.22920712	        -15.81765124	          0.09765800	          0.76682817	        -11.69001243	          3.75447210	         32.53813438	         -7.02733964	          0.00351030	         -6.12139777	          0.11975344	          0.09271892	          0.01000007	          0.12133969	          0.18982431	          0.06391829	          0.16381927	          0.13441400	          0.03409417	          0.01000007	          0.01000004	          0.01288341	          0.01000007	          0.47499096	          0.18166066	          0.01000001	          0.01000005	          0.03513351	          0.01006729	          0.02562167	          0.13459273	          0.01000097	          0.19836762	          0.01000017	          0.01000004	          0.17493825	          0.14730534	          0.01279661	
